<svg width="189" height="28" viewBox="0 0 189 28" fill="none" xmlns="http://www.w3.org/2000/svg">
<path d="M22.6507 7.30242H1.34933C0.991462 7.30242 0.648256 7.16457 0.395208 6.91919C0.14216 6.67381 0 6.341 0 5.99398C0 5.64696 0.14216 5.31416 0.395208 5.06878C0.648256 4.8234 0.991462 4.68555 1.34933 4.68555H22.6507C23.0085 4.68555 23.3517 4.8234 23.6048 5.06878C23.8578 5.31416 24 5.64696 24 5.99398C24 6.341 23.8578 6.67381 23.6048 6.91919C23.3517 7.16457 23.0085 7.30242 22.6507 7.30242Z" fill="white"/>
<path opacity="0.3" d="M22.6507 15.3085H1.34933C0.991462 15.3085 0.648256 15.1706 0.395208 14.9252C0.14216 14.6799 0 14.347 0 14C0 13.653 0.14216 13.3202 0.395208 13.0748C0.648256 12.8294 0.991462 12.6916 1.34933 12.6916H22.6507C23.0085 12.6916 23.3517 12.8294 23.6048 13.0748C23.8578 13.3202 24 13.653 24 14C24 14.347 23.8578 14.6799 23.6048 14.9252C23.3517 15.1706 23.0085 15.3085 22.6507 15.3085Z" fill="white"/>
<path opacity="0.3" d="M22.6507 23.3145H1.34933C0.991462 23.3145 0.648256 23.1767 0.395208 22.9313C0.14216 22.6859 0 22.3531 0 22.0061C0 21.659 0.14216 21.3262 0.395208 21.0809C0.648256 20.8355 0.991462 20.6976 1.34933 20.6976H22.6507C23.0085 20.6976 23.3517 20.8355 23.6048 21.0809C23.8578 21.3262 24 21.659 24 22.0061C24 22.3531 23.8578 22.6859 23.6048 22.9313C23.3517 23.1767 23.0085 23.3145 22.6507 23.3145Z" fill="white"/>
<g clip-path="url(#clip0_7_996)">
<path d="M52.6366 27.6364C60.168 27.6364 66.273 21.5314 66.273 14V4.45456C66.273 3.36958 65.842 2.32904 65.0748 1.56185C64.3076 0.794653 63.267 0.363647 62.1821 0.363647L53.3184 0.363647V6.34592C53.3184 7.71092 53.4016 9.12501 54.1175 10.2868C54.63 11.1195 55.3156 11.8321 56.1278 12.3765C56.94 12.9208 57.8598 13.2841 58.8248 13.4416L59.0859 13.4839C59.1936 13.5207 59.287 13.5902 59.3532 13.6828C59.4194 13.7753 59.455 13.8862 59.455 14C59.455 14.1138 59.4194 14.2247 59.3532 14.3173C59.287 14.4098 59.1936 14.4793 59.0859 14.5161L58.8248 14.5584C57.4149 14.7887 56.113 15.4561 55.1028 16.4662C54.0927 17.4764 53.4253 18.7783 53.195 20.1882L53.1527 20.4493C53.1159 20.557 53.0464 20.6504 52.9538 20.7166C52.8613 20.7828 52.7504 20.8184 52.6366 20.8184C52.5228 20.8184 52.4119 20.7828 52.3194 20.7166C52.2268 20.6504 52.1573 20.557 52.1205 20.4493L52.0782 20.1882C51.9206 19.2232 51.5573 18.3035 51.013 17.4913C50.4687 16.6791 49.756 15.9935 48.9234 15.4809C47.7616 14.765 46.3475 14.6818 44.9825 14.6818H39.0166C39.3732 21.8961 45.3343 27.6364 52.6366 27.6364Z" fill="white"/>
<path d="M39 13.3182H44.9823C46.3473 13.3182 47.7614 13.235 48.9232 12.5191C49.8314 11.9595 50.5959 11.195 51.1555 10.2868C51.8714 9.12501 51.9545 7.71092 51.9545 6.34592V0.363647H43.0909C42.0059 0.363647 40.9654 0.794653 40.1982 1.56185C39.431 2.32904 39 3.36958 39 4.45456V13.3182ZM70.6739 1.72728C70.6739 2.08894 70.5302 2.43579 70.2745 2.69152C70.0187 2.94725 69.6719 3.09092 69.3102 3.09092C68.9486 3.09092 68.6017 2.94725 68.346 2.69152C68.0903 2.43579 67.9466 2.08894 67.9466 1.72728C67.9466 1.36563 68.0903 1.01878 68.346 0.763047C68.6017 0.507316 68.9486 0.363647 69.3102 0.363647C69.6719 0.363647 70.0187 0.507316 70.2745 0.763047C70.5302 1.01878 70.6739 1.36563 70.6739 1.72728ZM183.348 8.61637C187.16 8.61637 189 11.2789 189 14.3627V20.1548H185.011V15.05C185.011 13.6523 184.501 12.4986 183.038 12.4986C181.576 12.4986 181.088 13.6523 181.088 15.05V20.1541H177.099V15.05C177.099 13.6523 176.611 12.4986 175.148 12.4986C173.686 12.4986 173.176 13.6523 173.176 15.05V20.1541H169.187V14.3621C169.187 11.2782 171.026 8.61569 174.838 8.61569C176.922 8.61569 178.428 9.4366 179.116 10.79C179.847 9.4366 181.443 8.61501 183.348 8.61501V8.61637ZM162.018 16.6046C163.304 16.6046 163.858 15.4284 163.858 14.03V9.05956H167.847V14.5182C167.847 17.78 165.941 20.4875 162.018 20.4875C158.095 20.4875 156.19 17.7807 156.19 14.5182V9.05956H160.179V14.03C160.179 15.4277 160.733 16.6046 162.018 16.6046ZM150.324 20.5093C147.82 20.5093 146.202 19.6441 145.248 17.958L148.13 16.338C148.529 17.0477 149.127 17.403 150.124 17.403C150.944 17.403 151.321 17.1146 151.321 16.7593C151.321 15.4059 145.47 16.7818 145.47 12.4775C145.47 10.3911 147.243 8.70501 150.257 8.70501C152.894 8.70501 154.335 9.9916 154.978 11.2346L152.097 12.8764C151.853 12.2109 151.099 11.8114 150.346 11.8114C149.77 11.8114 149.459 12.0555 149.459 12.3882C149.459 13.7641 155.31 12.4993 155.31 16.6707C155.31 19.0005 153.027 20.5093 150.324 20.5093ZM136.386 25.2582H132.397V14.585C132.397 11.1896 134.945 8.72683 138.492 8.72683C141.949 8.72683 144.586 11.3675 144.586 14.585C144.586 18.1352 142.237 20.4875 138.713 20.4875C137.893 20.4875 137.073 20.2434 136.386 19.8657V25.2582ZM138.492 16.7375C139.755 16.7375 140.597 15.7611 140.597 14.6068C140.597 13.4314 139.755 12.4768 138.492 12.4768C137.228 12.4768 136.386 13.4314 136.386 14.6075C136.386 15.7611 137.228 16.7375 138.492 16.7375ZM128.401 7.8841C127.093 7.8841 126.007 6.7966 126.007 5.48751C126.007 4.17842 127.093 3.09092 128.401 3.09092C129.708 3.09092 130.795 4.17842 130.795 5.48751C130.795 6.7966 129.708 7.8841 128.401 7.8841ZM126.406 9.05956H130.396V20.1548H126.406V9.05956ZM118.752 20.4875C115.295 20.4875 112.658 17.825 112.658 14.585C112.658 11.3675 115.295 8.70501 118.752 8.70501C122.21 8.70501 124.847 11.3675 124.847 14.585C124.847 17.825 122.21 20.4875 118.752 20.4875ZM118.752 16.7375C120.016 16.7375 120.858 15.7611 120.858 14.6068C120.858 13.4314 120.016 12.455 118.752 12.455C117.489 12.455 116.647 13.4314 116.647 14.6068C116.647 15.7611 117.489 16.7375 118.752 16.7375ZM105.125 25.5909C102.377 25.5909 100.382 24.3705 99.3627 22.1955L102.665 20.4207C103.019 21.1755 103.684 21.9521 105.058 21.9521C106.499 21.9521 107.452 21.0418 107.563 19.4443C107.031 19.9107 106.188 20.2652 104.926 20.2652C101.845 20.2652 99.362 17.8911 99.362 14.5625C99.362 11.3457 102 8.72683 105.458 8.72683C109.004 8.72683 111.552 11.1902 111.552 14.585V18.9786C111.552 22.9727 108.781 25.5909 105.125 25.5909ZM105.391 16.5159C106.587 16.5159 107.496 15.6943 107.496 14.4739C107.496 13.2759 106.588 12.4768 105.391 12.4768C104.216 12.4768 103.285 13.2759 103.285 14.4746C103.285 15.695 104.216 16.5152 105.391 16.5152V16.5159ZM92.5957 20.4875C89.1382 20.4875 86.5002 17.825 86.5002 14.585C86.5002 11.3675 89.1382 8.70501 92.5957 8.70501C96.0525 8.70501 98.6905 11.3675 98.6905 14.585C98.6905 17.825 96.0532 20.4875 92.5957 20.4875ZM92.5957 16.7375C93.8591 16.7375 94.7011 15.7611 94.7011 14.6068C94.7011 13.4314 93.8591 12.455 92.5957 12.455C91.3323 12.455 90.4902 13.4314 90.4902 14.6068C90.4902 15.7611 91.3323 16.7375 92.5957 16.7375ZM79.2361 5.17728V16.3823H85.8409V20.1548H78.6818C76.1557 20.1548 75.1364 18.8232 75.1364 16.715V5.17728H79.2361Z" fill="white"/>
</g>
<defs>
<clipPath id="clip0_7_996">
<rect width="150" height="27.2727" fill="white" transform="translate(39 0.363647)"/>
</clipPath>
</defs>
</svg>
